<?xml version="1.0" encoding="UTF-8" standalone="no"?>
<!DOCTYPE svg PUBLIC "-//W3C//DTD SVG 1.1//EN" "http://www.w3.org/Graphics/SVG/1.1/DTD/svg11.dtd">
<svg width="100%" height="100%" viewBox="0 0 1873 264" version="1.1" xmlns="http://www.w3.org/2000/svg" xmlns:xlink="http://www.w3.org/1999/xlink" xml:space="preserve" xmlns:serif="http://www.serif.com/" style="fill-rule:evenodd;clip-rule:evenodd;stroke-linejoin:round;stroke-miterlimit:2;">
    <g>
        <g transform="matrix(5.21527,0,0,5.21527,-5749.11,-8411.13)">
            <path d="M1189.34,1646.54C1189.34,1647.8 1189.18,1648.92 1188.86,1649.92C1188.54,1650.92 1188.12,1651.81 1187.6,1652.57C1187.08,1653.34 1186.47,1653.99 1185.77,1654.53C1185.07,1655.06 1184.35,1655.5 1183.6,1655.85C1182.85,1656.19 1182.09,1656.44 1181.32,1656.6C1180.54,1656.76 1179.81,1656.85 1179.13,1656.85L1154.64,1656.85L1154.64,1650.5L1179.13,1650.5C1180.35,1650.5 1181.3,1650.14 1181.97,1649.42C1182.65,1648.71 1182.99,1647.75 1182.99,1646.54C1182.99,1645.96 1182.9,1645.42 1182.72,1644.93C1182.54,1644.44 1182.28,1644.02 1181.95,1643.66C1181.62,1643.3 1181.21,1643.03 1180.73,1642.83C1180.25,1642.64 1179.72,1642.54 1179.13,1642.54L1164.53,1642.54C1163.51,1642.54 1162.4,1642.36 1161.21,1641.99C1160.02,1641.62 1158.92,1641.03 1157.9,1640.22C1156.88,1639.41 1156.04,1638.34 1155.36,1637.02C1154.69,1635.7 1154.35,1634.09 1154.35,1632.19C1154.35,1630.28 1154.69,1628.68 1155.36,1627.37C1156.04,1626.06 1156.88,1624.99 1157.9,1624.17C1158.92,1623.35 1160.02,1622.75 1161.21,1622.38C1162.4,1622.02 1163.51,1621.84 1164.53,1621.84L1186.14,1621.84L1186.14,1628.18L1164.53,1628.18C1163.33,1628.18 1162.39,1628.55 1161.71,1629.28C1161.04,1630.02 1160.7,1630.98 1160.7,1632.19C1160.7,1633.41 1161.04,1634.37 1161.71,1635.08C1162.39,1635.79 1163.33,1636.14 1164.53,1636.14L1179.18,1636.14C1179.86,1636.16 1180.59,1636.25 1181.35,1636.42C1182.12,1636.59 1182.88,1636.86 1183.63,1637.22C1184.39,1637.58 1185.11,1638.03 1185.8,1638.57C1186.48,1639.12 1187.09,1639.77 1187.61,1640.54C1188.14,1641.3 1188.56,1642.18 1188.87,1643.17C1189.18,1644.17 1189.34,1645.29 1189.34,1646.54Z" style="fill:white;fill-rule:nonzero;"/>
            <path d="M1221.15,1648.11C1221.15,1648.99 1220.99,1649.93 1220.68,1650.95C1220.37,1651.97 1219.87,1652.91 1219.18,1653.78C1218.49,1654.65 1217.59,1655.38 1216.47,1655.97C1215.36,1656.55 1214,1656.85 1212.41,1656.85L1200.96,1656.85C1200.08,1656.85 1199.13,1656.69 1198.11,1656.38C1197.1,1656.07 1196.15,1655.57 1195.28,1654.88C1194.41,1654.19 1193.68,1653.29 1193.1,1652.17C1192.51,1651.06 1192.22,1649.7 1192.22,1648.11C1192.22,1647.23 1192.37,1646.28 1192.68,1645.25C1192.99,1644.22 1193.49,1643.28 1194.18,1642.4C1194.87,1641.53 1195.78,1640.81 1196.89,1640.22C1198.01,1639.63 1199.36,1639.34 1200.96,1639.34L1212.41,1639.34L1212.41,1645.4L1200.96,1645.4C1200.09,1645.4 1199.43,1645.66 1198.95,1646.19C1198.48,1646.72 1198.25,1647.37 1198.25,1648.15C1198.25,1648.99 1198.52,1649.63 1199.06,1650.1C1199.61,1650.56 1200.26,1650.79 1201.01,1650.79L1212.41,1650.79C1213.27,1650.79 1213.94,1650.53 1214.41,1650.01C1214.88,1649.49 1215.12,1648.84 1215.12,1648.06L1215.12,1639.19C1215.12,1638.36 1214.86,1637.7 1214.35,1637.22C1213.84,1636.73 1213.19,1636.49 1212.41,1636.49L1198.47,1636.49L1198.47,1630.45L1212.41,1630.45C1213.29,1630.45 1214.23,1630.61 1215.25,1630.92C1216.27,1631.23 1217.21,1631.73 1218.08,1632.42C1218.95,1633.11 1219.68,1634.02 1220.27,1635.13C1220.85,1636.24 1221.15,1637.6 1221.15,1639.19L1221.15,1648.11Z" style="fill:white;fill-rule:nonzero;"/>
            <path d="M1238.16,1656.85L1235.33,1656.85C1234.42,1656.85 1233.45,1656.69 1232.41,1656.38C1231.38,1656.07 1230.42,1655.56 1229.52,1654.86C1228.63,1654.15 1227.88,1653.23 1227.3,1652.1C1226.71,1650.97 1226.42,1649.58 1226.42,1647.93L1226.42,1619.3L1232.77,1619.3L1232.77,1647.93C1232.77,1648.72 1233.01,1649.34 1233.5,1649.8C1233.99,1650.27 1234.6,1650.5 1235.33,1650.5L1238.16,1650.5L1238.16,1656.85Z" style="fill:white;fill-rule:nonzero;"/>
            <path d="M1248.69,1625.03L1242.34,1625.03L1242.34,1619.3L1248.69,1619.3L1248.69,1625.03ZM1248.69,1656.85L1242.34,1656.85L1242.34,1630.45L1248.69,1630.45L1248.69,1656.85Z" style="fill:white;fill-rule:nonzero;"/>
            <path d="M1290.41,1649.15C1290.41,1649.94 1290.28,1650.78 1290.01,1651.67C1289.74,1652.57 1289.3,1653.39 1288.69,1654.16C1288.08,1654.92 1287.28,1655.56 1286.31,1656.08C1285.33,1656.59 1284.13,1656.85 1282.72,1656.85L1258.62,1656.85C1258.17,1656.85 1257.74,1656.76 1257.35,1656.6C1256.96,1656.44 1256.62,1656.22 1256.34,1655.93C1256.06,1655.64 1255.83,1655.31 1255.67,1654.92C1255.51,1654.53 1255.42,1654.1 1255.42,1653.65L1255.42,1625.03C1255.42,1624.6 1255.51,1624.18 1255.67,1623.79C1255.83,1623.4 1256.06,1623.06 1256.34,1622.76C1256.62,1622.47 1256.96,1622.24 1257.35,1622.08C1257.74,1621.92 1258.17,1621.84 1258.62,1621.84L1279.86,1621.84C1280.64,1621.84 1281.48,1621.97 1282.38,1622.25C1283.27,1622.53 1284.11,1622.97 1284.88,1623.58C1285.65,1624.19 1286.3,1624.99 1286.81,1625.96C1287.32,1626.94 1287.58,1628.13 1287.58,1629.55L1287.58,1630.75C1287.58,1631.87 1287.39,1633.08 1287.02,1634.37C1286.64,1635.67 1286.04,1636.89 1285.21,1638.05C1285.92,1638.49 1286.6,1639.02 1287.22,1639.63C1287.85,1640.25 1288.4,1640.97 1288.87,1641.78C1289.34,1642.6 1289.72,1643.52 1289.99,1644.54C1290.27,1645.57 1290.41,1646.7 1290.41,1647.93L1290.41,1649.15ZM1284.06,1647.93C1284.06,1647.11 1283.93,1646.36 1283.67,1645.7C1283.41,1645.04 1283.05,1644.48 1282.57,1644C1282.1,1643.53 1281.53,1643.17 1280.86,1642.92C1280.2,1642.66 1279.45,1642.54 1278.62,1642.54L1264.31,1642.54L1264.31,1636.14L1275.76,1636.14C1276.59,1636.14 1277.34,1636.02 1278.01,1635.76C1278.67,1635.51 1279.24,1635.15 1279.72,1634.68C1280.19,1634.21 1280.55,1633.64 1280.8,1632.98C1281.06,1632.32 1281.18,1631.58 1281.18,1630.75L1281.18,1629.55C1281.18,1628.64 1280.74,1628.18 1279.86,1628.18L1261.77,1628.18L1261.77,1650.5L1282.72,1650.5C1282.83,1650.5 1282.97,1650.49 1283.13,1650.47C1283.3,1650.46 1283.44,1650.41 1283.57,1650.33C1283.7,1650.25 1283.82,1650.11 1283.91,1649.91C1284.01,1649.72 1284.06,1649.45 1284.06,1649.11L1284.06,1647.93Z" style="fill:white;fill-rule:nonzero;"/>
            <path d="M1318.32,1636.8L1304.03,1636.8C1303.17,1636.8 1302.52,1637.02 1302.08,1637.45C1301.64,1637.88 1301.42,1638.51 1301.42,1639.34L1301.42,1656.85L1295.07,1656.85L1295.07,1639.34C1295.07,1638.25 1295.21,1637.27 1295.49,1636.41C1295.76,1635.55 1296.13,1634.79 1296.6,1634.13C1297.06,1633.47 1297.6,1632.91 1298.2,1632.44C1298.8,1631.98 1299.43,1631.6 1300.09,1631.31C1300.75,1631.02 1301.42,1630.8 1302.09,1630.66C1302.77,1630.52 1303.4,1630.45 1303.98,1630.45L1318.32,1630.45L1318.32,1636.8Z" style="fill:white;fill-rule:nonzero;"/>
            <path d="M1351.1,1647.93C1351.1,1649.03 1350.96,1650.01 1350.69,1650.88C1350.41,1651.75 1350.05,1652.51 1349.59,1653.17C1349.13,1653.83 1348.6,1654.39 1348,1654.86C1347.4,1655.32 1346.77,1655.7 1346.11,1655.99C1345.45,1656.28 1344.78,1656.5 1344.11,1656.64C1343.43,1656.78 1342.79,1656.85 1342.19,1656.85L1330.74,1656.85C1329.86,1656.85 1328.9,1656.69 1327.86,1656.38C1326.82,1656.07 1325.86,1655.56 1324.97,1654.86C1324.08,1654.15 1323.34,1653.23 1322.75,1652.1C1322.15,1650.97 1321.86,1649.58 1321.86,1647.93L1321.86,1639.34C1321.86,1637.71 1322.15,1636.33 1322.75,1635.2C1323.34,1634.07 1324.08,1633.15 1324.97,1632.44C1325.86,1631.74 1326.82,1631.23 1327.86,1630.92C1328.9,1630.61 1329.86,1630.45 1330.74,1630.45L1342.19,1630.45C1343.82,1630.45 1345.2,1630.75 1346.34,1631.33C1347.48,1631.92 1348.4,1632.66 1349.1,1633.54C1349.8,1634.43 1350.31,1635.39 1350.63,1636.44C1350.94,1637.48 1351.1,1638.45 1351.1,1639.34L1351.1,1647.93ZM1344.76,1639.39C1344.76,1638.51 1344.54,1637.86 1344.1,1637.44C1343.66,1637.01 1343.02,1636.8 1342.19,1636.8L1330.79,1636.8C1329.94,1636.8 1329.3,1637.02 1328.86,1637.45C1328.42,1637.88 1328.2,1638.51 1328.2,1639.34L1328.2,1647.93C1328.2,1648.77 1328.42,1649.4 1328.86,1649.84C1329.3,1650.28 1329.94,1650.5 1330.79,1650.5L1342.19,1650.5C1343.05,1650.5 1343.7,1650.28 1344.12,1649.84C1344.54,1649.4 1344.76,1648.77 1344.76,1647.93L1344.76,1639.39Z" style="fill:white;fill-rule:nonzero;"/>
            <path d="M1399.95,1630.45C1398.95,1632.72 1397.86,1634.94 1396.68,1637.13C1395.51,1639.32 1394.29,1641.39 1393.01,1643.35C1391.73,1645.3 1390.43,1647.1 1389.09,1648.75C1387.76,1650.4 1386.43,1651.83 1385.12,1653.03C1383.81,1654.22 1382.54,1655.16 1381.29,1655.83C1380.05,1656.51 1378.87,1656.85 1377.76,1656.85C1377.31,1656.85 1376.88,1656.76 1376.49,1656.6C1376.1,1656.44 1375.76,1656.22 1375.47,1655.93C1375.17,1655.64 1374.95,1655.31 1374.78,1654.92C1374.62,1654.53 1374.54,1654.1 1374.54,1653.65L1374.54,1641.81L1361.94,1655.89C1361.62,1656.22 1361.26,1656.46 1360.88,1656.61C1360.5,1656.77 1360.1,1656.85 1359.7,1656.85C1359.26,1656.85 1358.85,1656.76 1358.46,1656.6C1358.08,1656.44 1357.74,1656.22 1357.45,1655.93C1357.16,1655.64 1356.93,1655.31 1356.76,1654.92C1356.58,1654.53 1356.5,1654.1 1356.5,1653.65L1356.5,1630.45L1362.85,1630.45L1362.85,1645.49L1375.49,1631.36C1375.95,1630.9 1376.49,1630.61 1377.12,1630.49C1377.74,1630.37 1378.36,1630.44 1378.96,1630.7C1379.56,1630.94 1380.04,1631.33 1380.39,1631.86C1380.74,1632.39 1380.91,1632.97 1380.91,1633.6L1380.91,1648.69C1382.28,1647.37 1383.52,1645.98 1384.62,1644.52C1385.73,1643.05 1386.76,1641.54 1387.71,1639.99C1388.66,1638.43 1389.56,1636.86 1390.4,1635.25C1391.24,1633.65 1392.05,1632.05 1392.85,1630.45L1399.95,1630.45Z" style="fill:white;fill-rule:nonzero;"/>
            <path d="M1427.66,1647.93C1427.66,1649.03 1427.53,1650.01 1427.25,1650.88C1426.97,1651.75 1426.61,1652.51 1426.15,1653.17C1425.7,1653.83 1425.17,1654.39 1424.57,1654.86C1423.96,1655.32 1423.33,1655.7 1422.67,1655.99C1422.01,1656.28 1421.35,1656.5 1420.67,1656.64C1420,1656.78 1419.36,1656.85 1418.75,1656.85L1401.57,1656.85L1401.57,1650.5L1418.7,1650.5C1419.57,1650.5 1420.22,1650.28 1420.66,1649.84C1421.1,1649.4 1421.32,1648.77 1421.32,1647.93C1421.24,1646.24 1420.38,1645.4 1418.75,1645.4L1408.91,1645.4C1407.52,1645.4 1406.33,1645.15 1405.35,1644.66C1404.37,1644.17 1403.58,1643.57 1402.97,1642.83C1402.36,1642.1 1401.92,1641.31 1401.65,1640.46C1401.38,1639.62 1401.25,1638.83 1401.25,1638.1C1401.25,1636.68 1401.5,1635.49 1402.01,1634.52C1402.51,1633.55 1403.14,1632.77 1403.91,1632.16C1404.67,1631.56 1405.51,1631.13 1406.4,1630.86C1407.3,1630.59 1408.13,1630.45 1408.91,1630.45L1424.52,1630.45L1424.52,1636.8L1408.96,1636.8C1408.64,1636.8 1408.38,1636.84 1408.19,1636.91C1408.01,1636.99 1407.87,1637.08 1407.78,1637.2C1407.69,1637.33 1407.64,1637.46 1407.62,1637.6C1407.61,1637.73 1407.6,1637.87 1407.6,1638C1407.61,1638.26 1407.66,1638.46 1407.74,1638.61C1407.83,1638.76 1407.93,1638.86 1408.05,1638.93C1408.17,1638.99 1408.31,1639.03 1408.46,1639.04C1408.62,1639.04 1408.77,1639.05 1408.91,1639.05L1418.75,1639.05C1420.38,1639.05 1421.77,1639.34 1422.9,1639.93C1424.04,1640.51 1424.96,1641.25 1425.66,1642.14C1426.36,1643.02 1426.87,1643.99 1427.19,1645.03C1427.51,1646.07 1427.66,1647.04 1427.66,1647.93Z" style="fill:white;fill-rule:nonzero;"/>
            <path d="M1460.5,1639.19C1460.5,1640.07 1460.35,1641.02 1460.04,1642.04C1459.73,1643.06 1459.23,1644 1458.54,1644.87C1457.85,1645.74 1456.94,1646.47 1455.83,1647.06C1454.71,1647.64 1453.36,1647.93 1451.76,1647.93L1440.31,1647.93L1440.31,1641.9L1451.76,1641.9C1452.62,1641.9 1453.29,1641.64 1453.76,1641.11C1454.24,1640.58 1454.47,1639.93 1454.47,1639.15C1454.47,1638.32 1454.21,1637.66 1453.68,1637.19C1453.15,1636.72 1452.51,1636.49 1451.76,1636.49L1440.31,1636.49C1439.45,1636.49 1438.78,1636.75 1438.31,1637.28C1437.84,1637.81 1437.6,1638.46 1437.6,1639.24L1437.6,1648.11C1437.6,1648.95 1437.87,1649.61 1438.39,1650.08C1438.92,1650.56 1439.58,1650.79 1440.36,1650.79L1451.76,1650.79L1451.76,1656.85L1440.31,1656.85C1439.43,1656.85 1438.49,1656.69 1437.47,1656.38C1436.45,1656.07 1435.51,1655.57 1434.63,1654.88C1433.77,1654.19 1433.04,1653.29 1432.45,1652.17C1431.86,1651.06 1431.57,1649.7 1431.57,1648.11L1431.57,1639.19C1431.57,1638.32 1431.73,1637.37 1432.04,1636.35C1432.35,1635.33 1432.85,1634.39 1433.54,1633.52C1434.23,1632.65 1435.13,1631.92 1436.25,1631.33C1437.36,1630.75 1438.72,1630.45 1440.31,1630.45L1451.76,1630.45C1452.64,1630.45 1453.59,1630.61 1454.61,1630.92C1455.62,1631.23 1456.57,1631.73 1457.44,1632.42C1458.31,1633.11 1459.04,1634.02 1459.62,1635.13C1460.21,1636.24 1460.5,1637.6 1460.5,1639.19Z" style="fill:white;fill-rule:nonzero;"/>
        </g>
        <g transform="matrix(0.540752,0,0,0.301241,-372.548,-312.597)">
            <path d="M777.2,1347.2L887.046,1337.11C887.046,1337.11 992.944,1039.29 1160.81,1070.61C1180.16,1074.22 1165.45,1254.38 1116.87,1377.24C1065.27,1507.76 1014.59,1564.84 1014.59,1564.84L1009.03,1763.54L894.346,1882.47L873.659,1845.16L898.124,1691.88L812.544,1543.08L731.664,1586L709.685,1548.55L777.2,1347.2ZM1069.38,1134.47C1039.42,1134.47 1015.1,1178.13 1015.1,1231.91C1015.1,1285.7 1039.42,1329.36 1069.38,1329.36C1099.35,1329.36 1123.67,1285.7 1123.67,1231.91C1123.67,1178.13 1099.35,1134.47 1069.38,1134.47Z" style="fill:white;"/>
        </g>
    </g>
</svg>
